# xmcd
#
# Track frame offsets:
# 150
# 18603
# 43393
# 63047
# 83762
# 103894
# 119521
# 141966
# 161486
# 178814
# 192331
# 212237
# 226943
# 244740
# 259134
# 277312
# 290042
#
# Disc length: 4002 seconds
#
#
# Revision: 0
# Processed by: cddbd v1.5.2PL0 Copyright (c) Steve Scherf et al.
# Submitted via: Nero 7, 2, 3, 2 
#
DISCID=0d0fa011
DTITLE=Son's of the San Joaquin - Favorite Son's
DYEAR=2016
DGENRE=Country
TTITLE0=Favorite Son's
TTITLE1=Favorite Son's
TTITLE2=Favorite Son's
TTITLE3=Favorite Son's
TTITLE4=Favorite Son's
TTITLE5=Favorite Son's
TTITLE6=Favorite Son's
TTITLE7=Favorite Son's
TTITLE8=Favorite Son's
TTITLE9=Favorite Son's
TTITLE10=Favorite Son's
TTITLE11=Favorite Son's
TTITLE12=Favorite Son's
TTITLE13=Favorite Son's
TTITLE14=Favorite Son's
TTITLE15=Favorite Son's
TTITLE16=Favorite Son's
EXTD=
EXTT0=
EXTT1=
EXTT2=
EXTT3=
EXTT4=
EXTT5=
EXTT6=
EXTT7=
EXTT8=
EXTT9=
EXTT10=
EXTT11=
EXTT12=
EXTT13=
EXTT14=
EXTT15=
EXTT16=
PLAYORDER=
